# This file uses centimeters as units for non-parametric coordinates.

mtllib Luleg.mtl
g default
v 1.030909 -7.150813 -0.030741
v 1.026093 -7.150813 -0.061145
v 1.018126 -7.150813 -0.090879
v 1.007094 -7.150813 -0.119618
v 0.993119 -7.150813 -0.147046
v 0.976353 -7.150813 -0.172863
v 0.956981 -7.150813 -0.196786
v 0.935214 -7.150813 -0.218552
v 0.911291 -7.150813 -0.237925
v 0.885474 -7.150813 -0.254691
v 0.858046 -7.150813 -0.268666
v 0.829308 -7.150813 -0.279697
v 0.799573 -7.150813 -0.287665
v 0.769169 -7.150813 -0.292480
v 0.738428 -7.150813 -0.294091
v 0.707687 -7.150813 -0.292480
v 0.677283 -7.150813 -0.287665
v 0.647549 -7.150813 -0.279697
v 0.618811 -7.150813 -0.268666
v 0.591383 -7.150813 -0.254691
v 0.565566 -7.150813 -0.237925
v 0.541643 -7.150813 -0.218552
v 0.519876 -7.150813 -0.196785
v 0.500504 -7.150813 -0.172863
v 0.483738 -7.150813 -0.147046
v 0.469763 -7.150813 -0.119618
v 0.458731 -7.150813 -0.090879
v 0.450764 -7.150813 -0.061145
v 0.445948 -7.150813 -0.030741
v 0.444337 -7.150813 0.000000
v 0.445948 -7.150813 0.030741
v 0.450764 -7.150813 0.061145
v 0.458731 -7.150813 0.090879
v 0.469763 -7.150813 0.119618
v 0.483738 -7.150813 0.147046
v 0.500504 -7.150813 0.172863
v 0.519876 -7.150813 0.196785
v 0.541643 -7.150813 0.218552
v 0.565566 -7.150813 0.237925
v 0.591383 -7.150813 0.254690
v 0.618811 -7.150813 0.268666
v 0.647549 -7.150813 0.279697
v 0.677283 -7.150813 0.287665
v 0.707688 -7.150813 0.292480
v 0.738428 -7.150813 0.294091
v 0.769169 -7.150813 0.292480
v 0.799573 -7.150813 0.287665
v 0.829308 -7.150813 0.279697
v 0.858046 -7.150813 0.268666
v 0.885474 -7.150813 0.254690
v 0.911291 -7.150813 0.237925
v 0.935214 -7.150813 0.218552
v 0.956981 -7.150813 0.196785
v 0.976353 -7.150813 0.172862
v 0.993119 -7.150813 0.147046
v 1.007094 -7.150813 0.119618
v 1.018126 -7.150813 0.090879
v 1.026093 -7.150813 0.061145
v 1.030908 -7.150813 0.030741
v 1.032520 -7.150813 0.000000
v 1.030909 -6.048214 -0.030741
v 1.026093 -6.048214 -0.061145
v 1.018126 -6.048214 -0.090879
v 1.007094 -6.048214 -0.119618
v 0.993119 -6.048214 -0.147046
v 0.976353 -6.048214 -0.172863
v 0.956981 -6.048214 -0.196786
v 0.935214 -6.048214 -0.218552
v 0.911291 -6.048214 -0.237925
v 0.885474 -6.048214 -0.254691
v 0.858046 -6.048214 -0.268666
v 0.829308 -6.048214 -0.279697
v 0.799573 -6.048214 -0.287665
v 0.769169 -6.048214 -0.292480
v 0.738428 -6.048214 -0.294091
v 0.707687 -6.048214 -0.292480
v 0.677283 -6.048214 -0.287665
v 0.647549 -6.048214 -0.279697
v 0.618811 -6.048214 -0.268666
v 0.591383 -6.048214 -0.254691
v 0.565566 -6.048214 -0.237925
v 0.541643 -6.048214 -0.218552
v 0.519876 -6.048214 -0.196785
v 0.500504 -6.048214 -0.172863
v 0.483738 -6.048214 -0.147046
v 0.469763 -6.048214 -0.119618
v 0.458731 -6.048214 -0.090879
v 0.450764 -6.048214 -0.061145
v 0.445948 -6.048214 -0.030741
v 0.444337 -6.048214 0.000000
v 0.445948 -6.048214 0.030741
v 0.450764 -6.048214 0.061145
v 0.458731 -6.048214 0.090879
v 0.469763 -6.048214 0.119618
v 0.483738 -6.048214 0.147046
v 0.500504 -6.048214 0.172863
v 0.519876 -6.048214 0.196785
v 0.541643 -6.048214 0.218552
v 0.565566 -6.048214 0.237925
v 0.591383 -6.048214 0.254690
v 0.618811 -6.048214 0.268666
v 0.647549 -6.048214 0.279697
v 0.677283 -6.048214 0.287665
v 0.707688 -6.048214 0.292480
v 0.738428 -6.048214 0.294091
v 0.769169 -6.048214 0.292480
v 0.799573 -6.048214 0.287665
v 0.829308 -6.048214 0.279697
v 0.858046 -6.048214 0.268666
v 0.885474 -6.048214 0.254690
v 0.911291 -6.048214 0.237925
v 0.935214 -6.048214 0.218552
v 0.956981 -6.048214 0.196785
v 0.976353 -6.048214 0.172862
v 0.993119 -6.048214 0.147046
v 1.007094 -6.048214 0.119618
v 1.018126 -6.048214 0.090879
v 1.026093 -6.048214 0.061145
v 1.030908 -6.048214 0.030741
v 1.032520 -6.048214 0.000000
vt 0.655394 0.139917
vt 0.652836 0.123764
vt 0.648603 0.107966
vt 0.642742 0.092697
vt 0.635317 0.078125
vt 0.626409 0.064408
vt 0.616116 0.051698
vt 0.604552 0.040134
vt 0.591842 0.029841
vt 0.578125 0.020933
vt 0.563553 0.013508
vt 0.548284 0.007647
vt 0.532486 0.003414
vt 0.516333 0.000856
vt 0.500000 -0.000000
vt 0.483667 0.000856
vt 0.467514 0.003414
vt 0.451716 0.007647
vt 0.436447 0.013508
vt 0.421875 0.020933
vt 0.408158 0.029841
vt 0.395448 0.040134
vt 0.383884 0.051698
vt 0.373591 0.064409
vt 0.364683 0.078125
vt 0.357258 0.092697
vt 0.351397 0.107966
vt 0.347164 0.123764
vt 0.344606 0.139917
vt 0.343750 0.156250
vt 0.344606 0.172583
vt 0.347164 0.188736
vt 0.351397 0.204534
vt 0.357258 0.219803
vt 0.364684 0.234375
vt 0.373591 0.248091
vt 0.383884 0.260802
vt 0.395448 0.272366
vt 0.408159 0.282659
vt 0.421875 0.291566
vt 0.436447 0.298992
vt 0.451716 0.304853
vt 0.467514 0.309086
vt 0.483667 0.311644
vt 0.500000 0.312500
vt 0.516333 0.311644
vt 0.532486 0.309086
vt 0.548284 0.304853
vt 0.563553 0.298992
vt 0.578125 0.291566
vt 0.591841 0.282659
vt 0.604552 0.272366
vt 0.616116 0.260802
vt 0.626409 0.248091
vt 0.635316 0.234375
vt 0.642742 0.219803
vt 0.648603 0.204534
vt 0.652836 0.188736
vt 0.655394 0.172583
vt 0.656250 0.156250
vt 0.375000 0.312500
vt 0.379167 0.312500
vt 0.383333 0.312500
vt 0.387500 0.312500
vt 0.391667 0.312500
vt 0.395833 0.312500
vt 0.400000 0.312500
vt 0.404167 0.312500
vt 0.408333 0.312500
vt 0.412500 0.312500
vt 0.416667 0.312500
vt 0.420833 0.312500
vt 0.425000 0.312500
vt 0.429167 0.312500
vt 0.433333 0.312500
vt 0.437500 0.312500
vt 0.441667 0.312500
vt 0.445833 0.312500
vt 0.450000 0.312500
vt 0.454167 0.312500
vt 0.458333 0.312500
vt 0.462500 0.312500
vt 0.466667 0.312500
vt 0.470833 0.312500
vt 0.475000 0.312500
vt 0.479167 0.312500
vt 0.483333 0.312500
vt 0.487500 0.312500
vt 0.491667 0.312500
vt 0.495833 0.312500
vt 0.500000 0.312500
vt 0.504167 0.312500
vt 0.508333 0.312500
vt 0.512500 0.312500
vt 0.516667 0.312500
vt 0.520833 0.312500
vt 0.525000 0.312500
vt 0.529167 0.312500
vt 0.533333 0.312500
vt 0.537500 0.312500
vt 0.541667 0.312500
vt 0.545833 0.312500
vt 0.550000 0.312500
vt 0.554166 0.312500
vt 0.558333 0.312500
vt 0.562500 0.312500
vt 0.566666 0.312500
vt 0.570833 0.312500
vt 0.575000 0.312500
vt 0.579166 0.312500
vt 0.583333 0.312500
vt 0.587500 0.312500
vt 0.591666 0.312500
vt 0.595833 0.312500
vt 0.600000 0.312500
vt 0.604166 0.312500
vt 0.608333 0.312500
vt 0.612500 0.312500
vt 0.616666 0.312500
vt 0.620833 0.312500
vt 0.625000 0.312500
vt 0.375000 0.688440
vt 0.379167 0.688440
vt 0.383333 0.688440
vt 0.387500 0.688440
vt 0.391667 0.688440
vt 0.395833 0.688440
vt 0.400000 0.688440
vt 0.404167 0.688440
vt 0.408333 0.688440
vt 0.412500 0.688440
vt 0.416667 0.688440
vt 0.420833 0.688440
vt 0.425000 0.688440
vt 0.429167 0.688440
vt 0.433333 0.688440
vt 0.437500 0.688440
vt 0.441667 0.688440
vt 0.445833 0.688440
vt 0.450000 0.688440
vt 0.454167 0.688440
vt 0.458333 0.688440
vt 0.462500 0.688440
vt 0.466667 0.688440
vt 0.470833 0.688440
vt 0.475000 0.688440
vt 0.479167 0.688440
vt 0.483333 0.688440
vt 0.487500 0.688440
vt 0.491667 0.688440
vt 0.495833 0.688440
vt 0.500000 0.688440
vt 0.504167 0.688440
vt 0.508333 0.688440
vt 0.512500 0.688440
vt 0.516667 0.688440
vt 0.520833 0.688440
vt 0.525000 0.688440
vt 0.529167 0.688440
vt 0.533333 0.688440
vt 0.537500 0.688440
vt 0.541667 0.688440
vt 0.545833 0.688440
vt 0.550000 0.688440
vt 0.554166 0.688440
vt 0.558333 0.688440
vt 0.562500 0.688440
vt 0.566666 0.688440
vt 0.570833 0.688440
vt 0.575000 0.688440
vt 0.579166 0.688440
vt 0.583333 0.688440
vt 0.587500 0.688440
vt 0.591666 0.688440
vt 0.595833 0.688440
vt 0.600000 0.688440
vt 0.604166 0.688440
vt 0.608333 0.688440
vt 0.612500 0.688440
vt 0.616666 0.688440
vt 0.620833 0.688440
vt 0.625000 0.688440
vt 0.655394 0.827417
vt 0.652836 0.811264
vt 0.648603 0.795466
vt 0.642742 0.780197
vt 0.635317 0.765625
vt 0.626409 0.751908
vt 0.616116 0.739198
vt 0.604552 0.727634
vt 0.591842 0.717341
vt 0.578125 0.708433
vt 0.563553 0.701008
vt 0.548284 0.695147
vt 0.532486 0.690914
vt 0.516333 0.688356
vt 0.500000 0.687500
vt 0.483667 0.688356
vt 0.467514 0.690914
vt 0.451716 0.695147
vt 0.436447 0.701008
vt 0.421875 0.708433
vt 0.408158 0.717341
vt 0.395448 0.727634
vt 0.383884 0.739198
vt 0.373591 0.751909
vt 0.364683 0.765625
vt 0.357258 0.780197
vt 0.351397 0.795466
vt 0.347164 0.811264
vt 0.344606 0.827417
vt 0.343750 0.843750
vt 0.344606 0.860083
vt 0.347164 0.876236
vt 0.351397 0.892034
vt 0.357258 0.907303
vt 0.364684 0.921875
vt 0.373591 0.935591
vt 0.383884 0.948302
vt 0.395448 0.959866
vt 0.408159 0.970159
vt 0.421875 0.979066
vt 0.436447 0.986492
vt 0.451716 0.992353
vt 0.467514 0.996586
vt 0.483667 0.999144
vt 0.500000 1.000000
vt 0.516333 0.999144
vt 0.532486 0.996586
vt 0.548284 0.992353
vt 0.563553 0.986492
vt 0.578125 0.979066
vt 0.591841 0.970159
vt 0.604552 0.959866
vt 0.616116 0.948302
vt 0.626409 0.935591
vt 0.635316 0.921875
vt 0.642742 0.907303
vt 0.648603 0.892034
vt 0.652836 0.876236
vt 0.655394 0.860083
vt 0.656250 0.843750
vn 0.994522 0.000000 -0.104525
vn 0.978148 0.000000 -0.207912
vn 0.978148 0.000000 -0.207912
vn 0.994522 0.000000 -0.104525
vn 0.951056 0.000000 -0.309017
vn 0.951056 0.000000 -0.309017
vn 0.913545 0.000000 -0.406737
vn 0.913545 0.000000 -0.406737
vn 0.866025 0.000000 -0.500000
vn 0.866025 0.000000 -0.500000
vn 0.809017 0.000000 -0.587786
vn 0.809017 0.000000 -0.587786
vn 0.743145 0.000000 -0.669131
vn 0.743145 0.000000 -0.669131
vn 0.669130 0.000000 -0.743145
vn 0.669130 0.000000 -0.743145
vn 0.587785 0.000000 -0.809017
vn 0.587785 0.000000 -0.809017
vn 0.500000 0.000000 -0.866026
vn 0.500000 0.000000 -0.866026
vn 0.406736 0.000000 -0.913546
vn 0.406736 0.000000 -0.913546
vn 0.309017 0.000000 -0.951057
vn 0.309017 0.000000 -0.951057
vn 0.207912 0.000000 -0.978148
vn 0.207912 0.000000 -0.978148
vn 0.104528 0.000000 -0.994522
vn 0.104528 0.000000 -0.994522
vn 0.000000 0.000000 -1.000000
vn 0.000000 0.000000 -1.000000
vn -0.104528 0.000000 -0.994522
vn -0.104528 0.000000 -0.994522
vn -0.207912 0.000000 -0.978148
vn -0.207912 0.000000 -0.978148
vn -0.309017 0.000000 -0.951056
vn -0.309017 0.000000 -0.951056
vn -0.406737 0.000000 -0.913545
vn -0.406737 0.000000 -0.913545
vn -0.500000 0.000000 -0.866025
vn -0.500000 0.000000 -0.866025
vn -0.587786 0.000000 -0.809017
vn -0.587786 0.000000 -0.809017
vn -0.669131 0.000000 -0.743145
vn -0.669131 0.000000 -0.743145
vn -0.743145 0.000000 -0.669130
vn -0.743145 0.000000 -0.669130
vn -0.809017 0.000000 -0.587785
vn -0.809017 0.000000 -0.587785
vn -0.866025 0.000000 -0.500000
vn -0.866025 0.000000 -0.500000
vn -0.913546 0.000000 -0.406736
vn -0.913546 0.000000 -0.406736
vn -0.951057 0.000000 -0.309017
vn -0.951057 0.000000 -0.309017
vn -0.978148 0.000000 -0.207912
vn -0.978148 0.000000 -0.207912
vn -0.994522 0.000000 -0.104528
vn -0.994522 0.000000 -0.104528
vn -1.000000 0.000000 0.000000
vn -1.000000 0.000000 0.000000
vn -0.994522 0.000000 0.104529
vn -0.994522 0.000000 0.104529
vn -0.978148 0.000000 0.207912
vn -0.978148 0.000000 0.207912
vn -0.951056 0.000000 0.309017
vn -0.951056 0.000000 0.309017
vn -0.913545 0.000000 0.406737
vn -0.913545 0.000000 0.406737
vn -0.866025 0.000000 0.500000
vn -0.866025 0.000000 0.500000
vn -0.809017 0.000000 0.587785
vn -0.809017 0.000000 0.587785
vn -0.743145 0.000000 0.669131
vn -0.743145 0.000000 0.669131
vn -0.669130 0.000000 0.743145
vn -0.669130 0.000000 0.743145
vn -0.587785 0.000000 0.809017
vn -0.587785 0.000000 0.809017
vn -0.500000 0.000000 0.866026
vn -0.500000 0.000000 0.866026
vn -0.406736 0.000000 0.913545
vn -0.406736 0.000000 0.913545
vn -0.309017 0.000000 0.951057
vn -0.309017 0.000000 0.951057
vn -0.207912 0.000000 0.978148
vn -0.207912 0.000000 0.978148
vn -0.104528 0.000000 0.994522
vn -0.104528 0.000000 0.994522
vn 0.000000 0.000000 1.000000
vn 0.000000 0.000000 1.000000
vn 0.104529 0.000000 0.994522
vn 0.104529 0.000000 0.994522
vn 0.207912 0.000000 0.978148
vn 0.207912 0.000000 0.978148
vn 0.309017 0.000000 0.951056
vn 0.309017 0.000000 0.951056
vn 0.406737 0.000000 0.913545
vn 0.406737 0.000000 0.913545
vn 0.500000 0.000000 0.866025
vn 0.500000 0.000000 0.866025
vn 0.587785 0.000000 0.809017
vn 0.587785 0.000000 0.809017
vn 0.669131 0.000000 0.743145
vn 0.669131 0.000000 0.743145
vn 0.743145 0.000000 0.669130
vn 0.743145 0.000000 0.669130
vn 0.809017 0.000000 0.587785
vn 0.809017 0.000000 0.587785
vn 0.866025 0.000000 0.500000
vn 0.866025 0.000000 0.500000
vn 0.913545 0.000000 0.406737
vn 0.913545 0.000000 0.406737
vn 0.951057 0.000000 0.309017
vn 0.951057 0.000000 0.309017
vn 0.978148 0.000000 0.207912
vn 0.978148 0.000000 0.207912
vn 0.994522 0.000000 0.104528
vn 0.994522 0.000000 0.104528
vn 1.000000 0.000000 0.000004
vn 1.000000 0.000000 0.000004
vn 0.000000 -1.000000 0.000000
vn 0.000000 -1.000000 0.000000
vn 0.000000 -1.000000 0.000000
vn 0.000000 -1.000000 0.000000
vn 0.000000 -1.000000 0.000000
vn 0.000000 -1.000000 0.000000
vn 0.000000 -1.000000 0.000000
vn 0.000000 -1.000000 0.000000
vn 0.000000 -1.000000 0.000000
vn 0.000000 -1.000000 0.000000
vn 0.000000 -1.000000 0.000000
vn 0.000000 -1.000000 0.000000
vn 0.000000 -1.000000 0.000000
vn 0.000000 -1.000000 0.000000
vn 0.000000 -1.000000 0.000000
vn 0.000000 -1.000000 0.000000
vn 0.000000 -1.000000 0.000000
vn 0.000000 -1.000000 0.000000
vn 0.000000 -1.000000 0.000000
vn 0.000000 -1.000000 0.000000
vn 0.000000 -1.000000 0.000000
vn 0.000000 -1.000000 0.000000
vn 0.000000 -1.000000 0.000000
vn 0.000000 -1.000000 0.000000
vn 0.000000 -1.000000 0.000000
vn 0.000000 -1.000000 0.000000
vn 0.000000 -1.000000 0.000000
vn 0.000000 -1.000000 0.000000
vn 0.000000 -1.000000 0.000000
vn 0.000000 -1.000000 0.000000
vn 0.000000 -1.000000 0.000000
vn 0.000000 -1.000000 0.000000
vn 0.000000 -1.000000 0.000000
vn 0.000000 -1.000000 0.000000
vn 0.000000 -1.000000 0.000000
vn 0.000000 -1.000000 0.000000
vn 0.000000 -1.000000 0.000000
vn 0.000000 -1.000000 0.000000
vn 0.000000 -1.000000 0.000000
vn 0.000000 -1.000000 0.000000
vn 0.000000 -1.000000 0.000000
vn 0.000000 -1.000000 0.000000
vn 0.000000 -1.000000 0.000000
vn 0.000000 -1.000000 0.000000
vn 0.000000 -1.000000 0.000000
vn 0.000000 -1.000000 0.000000
vn 0.000000 -1.000000 0.000000
vn 0.000000 -1.000000 0.000000
vn 0.000000 -1.000000 0.000000
vn 0.000000 -1.000000 0.000000
vn 0.000000 -1.000000 0.000000
vn 0.000000 -1.000000 0.000000
vn 0.000000 -1.000000 0.000000
vn 0.000000 -1.000000 0.000000
vn 0.000000 -1.000000 0.000000
vn 0.000000 -1.000000 0.000000
vn 0.000000 -1.000000 0.000000
vn 0.000000 -1.000000 0.000000
vn 0.000000 -1.000000 0.000000
vn 0.000000 -1.000000 0.000000
vn 0.000000 1.000000 0.000000
vn 0.000000 1.000000 0.000000
vn 0.000000 1.000000 0.000000
vn 0.000000 1.000000 0.000000
vn 0.000000 1.000000 0.000000
vn 0.000000 1.000000 0.000000
vn 0.000000 1.000000 0.000000
vn 0.000000 1.000000 0.000000
vn 0.000000 1.000000 0.000000
vn 0.000000 1.000000 0.000000
vn 0.000000 1.000000 0.000000
vn 0.000000 1.000000 0.000000
vn 0.000000 1.000000 0.000000
vn 0.000000 1.000000 0.000000
vn 0.000000 1.000000 0.000000
vn 0.000000 1.000000 0.000000
vn 0.000000 1.000000 0.000000
vn 0.000000 1.000000 0.000000
vn 0.000000 1.000000 0.000000
vn 0.000000 1.000000 0.000000
vn 0.000000 1.000000 0.000000
vn 0.000000 1.000000 0.000000
vn 0.000000 1.000000 0.000000
vn 0.000000 1.000000 0.000000
vn 0.000000 1.000000 0.000000
vn 0.000000 1.000000 0.000000
vn 0.000000 1.000000 0.000000
vn 0.000000 1.000000 0.000000
vn 0.000000 1.000000 0.000000
vn 0.000000 1.000000 0.000000
vn 0.000000 1.000000 0.000000
vn 0.000000 1.000000 0.000000
vn 0.000000 1.000000 0.000000
vn 0.000000 1.000000 0.000000
vn 0.000000 1.000000 0.000000
vn 0.000000 1.000000 0.000000
vn 0.000000 1.000000 0.000000
vn 0.000000 1.000000 0.000000
vn 0.000000 1.000000 0.000000
vn 0.000000 1.000000 0.000000
vn 0.000000 1.000000 0.000000
vn 0.000000 1.000000 0.000000
vn 0.000000 1.000000 0.000000
vn 0.000000 1.000000 0.000000
vn 0.000000 1.000000 0.000000
vn 0.000000 1.000000 0.000000
vn 0.000000 1.000000 0.000000
vn 0.000000 1.000000 0.000000
vn 0.000000 1.000000 0.000000
vn 0.000000 1.000000 0.000000
vn 0.000000 1.000000 0.000000
vn 0.000000 1.000000 0.000000
vn 0.000000 1.000000 0.000000
vn 0.000000 1.000000 0.000000
vn 0.000000 1.000000 0.000000
vn 0.000000 1.000000 0.000000
vn 0.000000 1.000000 0.000000
vn 0.000000 1.000000 0.000000
vn 0.000000 1.000000 0.000000
vn 0.000000 1.000000 0.000000
s 1
g pCylinder9
usemtl lambert2SG
f 1/61/1 2/62/2 62/123/3 61/122/4
f 2/62/2 3/63/5 63/124/6 62/123/3
f 3/63/5 4/64/7 64/125/8 63/124/6
f 4/64/7 5/65/9 65/126/10 64/125/8
f 5/65/9 6/66/11 66/127/12 65/126/10
f 6/66/11 7/67/13 67/128/14 66/127/12
f 7/67/13 8/68/15 68/129/16 67/128/14
f 8/68/15 9/69/17 69/130/18 68/129/16
f 9/69/17 10/70/19 70/131/20 69/130/18
f 10/70/19 11/71/21 71/132/22 70/131/20
f 11/71/21 12/72/23 72/133/24 71/132/22
f 12/72/23 13/73/25 73/134/26 72/133/24
f 13/73/25 14/74/27 74/135/28 73/134/26
f 14/74/27 15/75/29 75/136/30 74/135/28
f 15/75/29 16/76/31 76/137/32 75/136/30
f 16/76/31 17/77/33 77/138/34 76/137/32
f 17/77/33 18/78/35 78/139/36 77/138/34
f 18/78/35 19/79/37 79/140/38 78/139/36
f 19/79/37 20/80/39 80/141/40 79/140/38
f 20/80/39 21/81/41 81/142/42 80/141/40
f 21/81/41 22/82/43 82/143/44 81/142/42
f 22/82/43 23/83/45 83/144/46 82/143/44
f 23/83/45 24/84/47 84/145/48 83/144/46
f 24/84/47 25/85/49 85/146/50 84/145/48
f 25/85/49 26/86/51 86/147/52 85/146/50
f 26/86/51 27/87/53 87/148/54 86/147/52
f 27/87/53 28/88/55 88/149/56 87/148/54
f 28/88/55 29/89/57 89/150/58 88/149/56
f 29/89/57 30/90/59 90/151/60 89/150/58
f 30/90/59 31/91/61 91/152/62 90/151/60
f 31/91/61 32/92/63 92/153/64 91/152/62
f 32/92/63 33/93/65 93/154/66 92/153/64
f 33/93/65 34/94/67 94/155/68 93/154/66
f 34/94/67 35/95/69 95/156/70 94/155/68
f 35/95/69 36/96/71 96/157/72 95/156/70
f 36/96/71 37/97/73 97/158/74 96/157/72
f 37/97/73 38/98/75 98/159/76 97/158/74
f 38/98/75 39/99/77 99/160/78 98/159/76
f 39/99/77 40/100/79 100/161/80 99/160/78
f 40/100/79 41/101/81 101/162/82 100/161/80
f 41/101/81 42/102/83 102/163/84 101/162/82
f 42/102/83 43/103/85 103/164/86 102/163/84
f 43/103/85 44/104/87 104/165/88 103/164/86
f 44/104/87 45/105/89 105/166/90 104/165/88
f 45/105/89 46/106/91 106/167/92 105/166/90
f 46/106/91 47/107/93 107/168/94 106/167/92
f 47/107/93 48/108/95 108/169/96 107/168/94
f 48/108/95 49/109/97 109/170/98 108/169/96
f 49/109/97 50/110/99 110/171/100 109/170/98
f 50/110/99 51/111/101 111/172/102 110/171/100
f 51/111/101 52/112/103 112/173/104 111/172/102
f 52/112/103 53/113/105 113/174/106 112/173/104
f 53/113/105 54/114/107 114/175/108 113/174/106
f 54/114/107 55/115/109 115/176/110 114/175/108
f 55/115/109 56/116/111 116/177/112 115/176/110
f 56/116/111 57/117/113 117/178/114 116/177/112
f 57/117/113 58/118/115 118/179/116 117/178/114
f 58/118/115 59/119/117 119/180/118 118/179/116
f 59/119/117 60/120/119 120/181/120 119/180/118
f 60/120/119 1/121/1 61/182/4 120/181/120
s off
f 1/1/121 60/60/122 59/59/123 58/58/124 57/57/125 56/56/126 55/55/127 54/54/128 53/53/129 52/52/130 51/51/131 50/50/132 49/49/133 48/48/134 47/47/135 46/46/136 45/45/137 44/44/138 43/43/139 42/42/140 41/41/141 40/40/142 39/39/143 38/38/144 37/37/145 36/36/146 35/35/147 34/34/148 33/33/149 32/32/150 31/31/151 30/30/152 29/29/153 28/28/154 27/27/155 26/26/156 25/25/157 24/24/158 23/23/159 22/22/160 21/21/161 20/20/162 19/19/163 18/18/164 17/17/165 16/16/166 15/15/167 14/14/168 13/13/169 12/12/170 11/11/171 10/10/172 9/9/173 8/8/174 7/7/175 6/6/176 5/5/177 4/4/178 3/3/179 2/2/180
f 61/241/181 62/240/182 63/239/183 64/238/184 65/237/185 66/236/186 67/235/187 68/234/188 69/233/189 70/232/190 71/231/191 72/230/192 73/229/193 74/228/194 75/227/195 76/226/196 77/225/197 78/224/198 79/223/199 80/222/200 81/221/201 82/220/202 83/219/203 84/218/204 85/217/205 86/216/206 87/215/207 88/214/208 89/213/209 90/212/210 91/211/211 92/210/212 93/209/213 94/208/214 95/207/215 96/206/216 97/205/217 98/204/218 99/203/219 100/202/220 101/201/221 102/200/222 103/199/223 104/198/224 105/197/225 106/196/226 107/195/227 108/194/228 109/193/229 110/192/230 111/191/231 112/190/232 113/189/233 114/188/234 115/187/235 116/186/236 117/185/237 118/184/238 119/183/239 120/242/240
